HIERARCHY
ROOT Hips
{
	OFFSET	0.000000	0.000000	0.000000
	CHANNELS 6 Xposition Yposition Zposition Zrotation Xrotation Yrotation
	JOINT LeftUpLeg
	{
		OFFSET	12.811937	-7.635976	0.557276
		CHANNELS 3 Zrotation Xrotation Yrotation
		JOINT LeftLeg
		{
			OFFSET	-0.429270	-42.206159	-1.204951
			CHANNELS 3 Zrotation Xrotation Yrotation
			JOINT LeftFoot
			{
				OFFSET	-2.112259	-42.464481	-3.973220
				CHANNELS 3 Zrotation Xrotation Yrotation
				JOINT LeftFootHeel
				{
					OFFSET	0.387196	-5.329707	-3.419729
					CHANNELS 3 Zrotation Xrotation Yrotation
					End Site
					{
						OFFSET	0.327567	-0.000003	16.505428
					}
				}
			}
		}
	}
	JOINT RightUpLeg
	{
		OFFSET	-12.811937	-7.635976	0.557276
		CHANNELS 3 Zrotation Xrotation Yrotation
		JOINT RightLeg
		{
			OFFSET	0.429270	-42.206159	-1.204951
			CHANNELS 3 Zrotation Xrotation Yrotation
			JOINT RightFoot
			{
				OFFSET	2.112259	-42.464481	-3.973220
				CHANNELS 3 Zrotation Xrotation Yrotation
				JOINT RightFootHeel
				{
					OFFSET	-0.387198	-5.329707	-3.419729
					CHANNELS 3 Zrotation Xrotation Yrotation
					End Site
					{
						OFFSET	-0.327566	-0.000003	16.505428
					}
				}
			}
		}
	}
	JOINT Spine
	{
		OFFSET	0.000000	13.731315	-1.007646
		CHANNELS 3 Zrotation Xrotation Yrotation
		JOINT Spine1
		{
			OFFSET	0.000000	12.091746	-0.604589
			CHANNELS 3 Zrotation Xrotation Yrotation
			JOINT LeftShoulder
			{
				OFFSET	5.746115	20.990027	-0.833816
				CHANNELS 3 Zrotation Xrotation Yrotation
				JOINT LeftArm
				{
					OFFSET	10.881538	-1.359258	0.219250
					CHANNELS 3 Zrotation Xrotation Yrotation
					JOINT LeftForeArm
					{
						OFFSET	4.390314	-31.537147	0.202818
						CHANNELS 3 Zrotation Xrotation Yrotation
						JOINT LeftHand
						{
							OFFSET	3.168650	-24.865023	5.373370
							CHANNELS 3 Zrotation Xrotation Yrotation
							End Site
							{
								OFFSET	1.457528	-10.806075	2.170267
							}
						}
					}
				}
			}
			JOINT RightShoulder
			{
				OFFSET	-5.746115	20.990027	-0.833816
				CHANNELS 3 Zrotation Xrotation Yrotation
				JOINT RightArm
				{
					OFFSET	-10.881538	-1.359258	0.219250
					CHANNELS 3 Zrotation Xrotation Yrotation
					JOINT RightForeArm
					{
						OFFSET	-4.390314	-31.537147	0.202818
						CHANNELS 3 Zrotation Xrotation Yrotation
						JOINT RightHand
						{
							OFFSET	-3.168650	-24.865023	5.373370
							CHANNELS 3 Zrotation Xrotation Yrotation
							End Site
							{
								OFFSET	-1.457528	-10.806075	2.170267
							}
						}
					}
				}
			}
			JOINT Neck
			{
				OFFSET	0.000000	27.075639	0.680489
				CHANNELS 3 Zrotation Xrotation Yrotation
				JOINT Head
				{
					OFFSET	0.000000	12.391287	1.239129
					CHANNELS 3 Zrotation Xrotation Yrotation
					End Site
					{
						OFFSET	0.000000	13.818691	-0.105853
					}
				}
			}
		}
	}
}
MOTION
Frames:    10
Frame Time: 0.016667
0.000000	100.483623	0.000000	-0.724030	-0.152149	0.390039	0.172000	-0.287607	-1.273839	0.202697	1.539468	-1.378319	1.173759	-0.180391	2.639368	0.	0.	0.	1.289113	0.896593	-2.699957	0.322806	-0.414889	1.776321	-1.338792	-0.215902	1.196629	0.	0.	0.	0.690365	1.251911	-3.800348	-2.811162	3.096333	4.662631	1.574987	-1.972691	-2.608581	0.048971	-2.576820	-3.354050	0.410675	0.949363	2.506915	8.300099	7.269452	-14.781412	3.268444	-1.303770	-4.380720	0.480413	-4.396552	2.971022	-1.720265	5.113330	6.207926	-2.423883	0.713130	17.695358	4.762959	-1.591985	-2.609728	0.338248	-1.987503	-5.033541	
0.000363	100.483662	-0.000560	-0.724030	-0.152149	0.390039	0.172000	-0.287607	-1.273839	0.203993	1.539596	-1.359621	1.172408	-0.180934	2.620642	0.	0.	0.	1.289113	0.896593	-2.699957	0.322806	-0.414889	1.776321	-1.338792	-0.215902	1.196629	0.	0.	0.	0.690365	1.251911	-3.800348	-2.813452	3.119217	4.665057	1.571477	-1.981347	-2.620228	0.053936	-2.591017	-3.344183	0.398236	0.967375	2.502087	8.315995	7.328928	-14.747931	3.267338	-1.299030	-4.384034	0.477343	-4.413790	2.978858	-1.722779	5.119371	6.222487	-2.425874	0.702834	17.707726	4.730368	-1.555289	-2.570965	0.346367	-1.857431	-5.038292	
0.001157	100.483768	-0.001776	-0.724030	-0.152149	0.390039	0.172000	-0.287607	-1.273839	0.206796	1.539865	-1.319098	1.169485	-0.182097	2.580057	0.	0.	0.	1.285785	0.905645	-2.696009	0.326527	-0.423795	1.772476	-1.338792	-0.215902	1.196629	0.	0.	0.	0.690365	1.251911	-3.800348	-2.826486	3.143472	4.658671	1.577562	-1.987106	-2.625790	0.061129	-2.610639	-3.352447	0.385362	0.985389	2.518948	8.318069	7.359824	-14.731390	3.276711	-1.296615	-4.378532	0.471933	-4.420619	2.993642	-1.726868	5.122571	6.240747	-2.414464	0.679368	17.676691	4.732842	-1.482640	-2.525904	0.341871	-1.835496	-5.053682	
0.002126	100.483884	-0.003248	-0.724030	-0.152149	0.390039	0.172000	-0.287607	-1.273839	0.210189	1.540206	-1.269872	1.165943	-0.183519	2.530760	0.	0.	0.	1.285370	0.921735	-2.674911	0.327538	-0.439968	1.751475	-1.338792	-0.215902	1.196629	0.	0.	0.	0.690365	1.251911	-3.800348	-2.842365	3.177389	4.653477	1.584590	-1.991103	-2.636324	0.066771	-2.626705	-3.355341	0.397154	0.985652	2.499673	8.301788	7.362505	-14.687832	3.286160	-1.291632	-4.377317	0.479220	-4.432137	3.021546	-1.736613	5.107178	6.249965	-2.412043	0.672432	17.669439	4.732420	-1.465982	-2.495724	0.334372	-1.719867	-5.049261	
0.002686	100.483952	-0.004090	-0.724030	-0.152149	0.390039	0.172000	-0.287607	-1.273839	0.212137	1.540408	-1.241549	1.163910	-0.184341	2.502395	0.	0.	0.	1.290560	0.922851	-2.660065	0.322291	-0.441408	1.736555	-1.338792	-0.215902	1.196629	0.	0.	0.	0.690365	1.251911	-3.800348	-2.841567	3.197181	4.655365	1.583072	-1.984840	-2.640795	0.062987	-2.633050	-3.359840	0.425930	0.968681	2.457896	8.271856	7.368258	-14.638780	3.280584	-1.284912	-4.384086	0.484865	-4.458228	3.027678	-1.741413	5.108524	6.269556	-2.411592	0.674213	17.665041	4.709234	-1.446656	-2.474119	0.344019	-1.665553	-5.064797	
0.002970	100.483991	-0.004516	-0.724030	-0.152149	0.390039	0.172000	-0.287607	-1.273839	0.213123	1.540511	-1.227209	1.162881	-0.184757	2.488034	0.	0.	0.	1.293481	0.923475	-2.651714	0.319338	-0.442216	1.728159	-1.338792	-0.215902	1.196629	0.	0.	0.	0.690365	1.251911	-3.800348	-2.841202	3.206352	4.656236	1.580915	-1.983000	-2.645417	0.062701	-2.634274	-3.363543	0.441695	0.960502	2.437608	8.254922	7.371511	-14.611016	3.277725	-1.280672	-4.387776	0.475465	-4.442310	3.047129	-1.731244	5.079963	6.260797	-2.411338	0.675027	17.662836	4.707357	-1.429763	-2.466482	0.340234	-1.650176	-5.068441	
0.003586	100.484059	-0.005445	-0.724030	-0.152149	0.390039	0.172000	-0.287607	-1.273839	0.215257	1.540730	-1.196135	1.160652	-0.185653	2.456915	0.	0.	0.	1.309263	0.926477	-2.607137	0.303365	-0.446181	1.683349	-1.338792	-0.215902	1.196629	0.	0.	0.	0.688966	1.282332	-3.803585	-2.840517	3.192538	4.659829	1.577276	-1.981625	-2.659213	0.067985	-2.647334	-3.355165	0.471297	0.958594	2.382037	8.218826	7.378375	-14.551759	3.275777	-1.286691	-4.395060	0.466975	-4.432431	3.061192	-1.722719	5.060407	6.268627	-2.410955	0.676580	17.659042	4.697278	-1.401905	-2.448185	0.342341	-1.613616	-5.080710	
0.004323	100.484146	-0.006547	-0.724030	-0.152149	0.390039	0.172000	-0.287607	-1.273839	0.217805	1.541005	-1.159013	1.157991	-0.186732	2.419739	0.	0.	0.	1.339807	0.931726	-2.519938	0.272403	-0.453233	1.595685	-1.338792	-0.215902	1.196629	0.	0.	0.	0.686363	1.339225	-3.809653	-2.843331	3.153116	4.665561	1.579918	-1.981637	-2.673173	0.071098	-2.648379	-3.373985	0.502350	0.945020	2.355508	8.183916	7.384947	-14.494338	3.273848	-1.288190	-4.415752	0.466129	-4.426775	3.086636	-1.713773	5.039563	6.275850	-2.410101	0.677572	17.654024	4.684024	-1.381166	-2.425575	0.355387	-1.584718	-5.101460	
0.007875	100.485599	-0.015668	-0.732196	-0.212984	0.396709	0.180552	-0.226852	-1.280723	0.220997	1.540869	-1.090190	1.154572	-0.188049	2.350841	0.	0.	0.	1.435895	1.014529	-2.344524	0.184565	-0.479864	1.410719	-1.338792	-0.215902	1.196629	0.	0.	0.	0.690472	1.502223	-3.827991	-2.830967	3.081611	4.674471	1.568771	-1.984734	-2.694343	0.076239	-2.650478	-3.419467	0.553625	0.925726	2.321634	8.124699	7.395931	-14.396656	3.260172	-1.248543	-4.436055	0.464328	-4.461064	3.115435	-1.701206	5.005550	6.284897	-2.404932	0.676449	17.633463	4.644448	-1.344767	-2.385705	0.382429	-1.568915	-5.142974	
0.009426	100.487227	-0.024981	-0.742503	-0.293532	0.404536	0.191395	-0.146404	-1.288856	0.221756	1.540950	-1.079106	1.153778	-0.188368	2.339741	0.	0.	0.	1.478117	1.104124	-2.298573	0.153326	-0.490631	1.354304	-1.338792	-0.215902	1.196629	0.	0.	0.	0.698484	1.651085	-3.844145	-2.822485	3.038965	4.680951	1.562759	-1.999797	-2.703486	0.080497	-2.658929	-3.471602	0.582426	0.927424	2.317097	8.086165	7.403003	-14.333000	3.251229	-1.230886	-4.448184	0.465937	-4.486355	3.167802	-1.694001	4.990062	6.258471	-2.400997	0.675595	17.617817	4.614822	-1.321144	-2.355180	0.437474	-1.572235	-5.196815	
